<svg width="58" height="48" viewBox="0 0 58 48" fill="none" xmlns="http://www.w3.org/2000/svg">
<path d="M28.069 3.63115C28.401 2.78458 29.599 2.78458 29.931 3.63115L35.4864 17.798C35.6366 18.181 36.006 18.4329 36.4174 18.4329H53.9316C54.9451 18.4329 55.3156 19.767 54.4474 20.2897L40.6217 28.6126C40.2039 28.8642 40.0284 29.3804 40.2065 29.8345L45.5593 43.4846C45.908 44.3738 44.9309 45.1991 44.1126 44.7065L29.5157 35.9193C29.1984 35.7283 28.8016 35.7283 28.4842 35.9193L13.8874 44.7065C13.0691 45.1991 12.092 44.3738 12.4407 43.4846L17.7935 29.8345C17.9716 29.3804 17.7961 28.8642 17.3783 28.6126L3.55262 20.2897C2.68436 19.767 3.05492 18.4329 4.06838 18.4329H21.5826C21.994 18.4329 22.3634 18.181 22.5136 17.798L28.069 3.63115Z" fill="#BDD1DE" stroke="#BDD1DE" stroke-width="5"/>
</svg>
